<?xml version="1.0" encoding="UTF-8"?><svg id="_レイヤー_2" xmlns="http://www.w3.org/2000/svg" viewBox="0 0 120 54"><defs><style>.cls-1{fill:none;}.cls-2{fill:#004481;}.cls-3{fill:#27333a;}</style></defs><g id="_レイヤー_1-2"><g><path class="cls-3" d="M116.88,47.13l-1.1-.35c-.6-.17-.91-.43-.91-.78,0-.51,.46-.9,1.06-.9s.97,.31,1.02,.83c0,.05,0,.1,0,.14,0,.13,.08,.16,.31,.16h2.08c.3,0,.33-.13,.33-.26-.06-1.98-1.52-3.26-3.7-3.26s-3.85,1.4-3.85,3.32c0,1.08,.5,2.51,2.86,3.14l1.24,.37c.91,.3,1.04,.63,1.04,.92,0,.55-.47,.9-1.2,.9s-1.27-.4-1.32-.93c0-.02,0-.07,0-.08,0-.1-.09-.15-.25-.15h-2.21c-.25,0-.25,.16-.25,.26,.03,1.92,1.66,3.25,3.94,3.25,2,0,4.02-1.04,4.02-3.37,0-2.02-1.67-2.79-3.12-3.22Z"/><rect class="cls-2" y="25.77" width="119.81" height="12.18" rx="1.29" ry="1.29"/><path class="cls-3" d="M69.17,10.76c-.8-.69-1.91-1.29-3.46-1.71l-2.37-.72c-1.85-.61-2.09-1.35-2.09-1.93,0-1.15,.96-1.89,2.44-1.89,1.3,0,2.19,.69,2.4,1.63,.02,.07,.03,.15,.04,.23s0,.4,.56,.4h3.91c.46,0,.41-.35,.41-.45,0-.13-.01-.26-.03-.38-.32-3.37-3.05-5.66-7.12-5.66-3.74,0-7.52,1.97-7.52,6.36,0,1.88,.76,3.19,1.86,4.13,.8,.69,1.91,1.29,3.46,1.71l2.37,.72c1.85,.61,2.09,1.35,2.09,1.93,0,1.15-.96,1.89-2.44,1.89-1.4,0-2.33-.8-2.44-1.87,0-.04,0-.07,0-.11,0-.04,.01-.28-.4-.28h-4.1c-.44,0-.38,.25-.38,.29,0,.06,0,.12,0,.18,.15,3.56,2.92,6.03,7.15,6.03,3.74,0,7.52-1.97,7.52-6.36,0-1.88-.76-3.19-1.86-4.13Z"/><path class="cls-3" d="M29,13.27c0,2.46-1.58,3.34-3.05,3.34-.72,0-3.08-.24-3.08-3.34V1c0-.2-.17-.37-.37-.37h-4.13c-.2,0-.37,.17-.37,.37V13.62c0,4.96,4.1,7.63,7.95,7.63,4.52,0,7.92-3.28,7.92-7.63V1c0-.2-.17-.37-.37-.37h-4.13c-.2,0-.37,.17-.37,.37V13.27Z"/><path class="cls-3" d="M79.62,13.29h7.51c.2,0,.37-.17,.37-.37v-4.13c0-.2-.17-.37-.37-.37h-7.51c-.2,0-.37-.17-.37-.37v-2.18c0-.2,.17-.37,.37-.37h7.51c.2,0,.37-.17,.37-.37V1c0-.2-.17-.37-.37-.37h-12.38c-.2,0-.37,.17-.37,.37V20.53c0,.2,.17,.37,.37,.37h12.38c.2,0,.37-.17,.37-.37v-4.13c0-.2-.17-.37-.37-.37h-7.51c-.2,0-.37-.17-.37-.37v-2c0-.2,.17-.37,.37-.37Z"/><path class="cls-3" d="M96.71,.63h-4.13c-.2,0-.37,.17-.37,.37V20.53c0,.2,.17,.37,.37,.37h11.46c.2,0,.37-.17,.37-.37v-4.13c0-.2-.17-.37-.37-.37h-6.59c-.2,0-.37-.17-.37-.37V1c0-.2-.17-.37-.37-.37Z"/><path class="cls-3" d="M112.12,.63h-4.13c-.2,0-.37,.17-.37,.37V20.53c0,.2,.17,.37,.37,.37h11.46c.2,0,.37-.17,.37-.37v-4.13c0-.2-.17-.37-.37-.37h-6.59c-.2,0-.37-.17-.37-.37V1c0-.2-.17-.37-.37-.37Z"/><path class="cls-3" d="M12.32,10.76c2.28-1.05,2.46-3.6,2.46-4.41,0-3.37-2.63-5.73-6.41-5.73H.37C.17,.63,0,.79,0,1V20.53c0,.2,.17,.37,.37,.37H8.38c3.77,0,6.41-2.35,6.41-5.73,0-.81-.19-3.36-2.46-4.41ZM4.78,5.62c0-.2,.17-.37,.37-.37h2.81c1.55,0,1.67,1.44,1.67,1.88,0,1.18-.63,1.88-1.7,1.88h-2.77c-.2,0-.37-.17-.37-.37v-3.03Zm3.17,10.65h-2.81c-.2,0-.37-.17-.37-.37v-3.03c0-.2,.17-.37,.37-.37h2.77c1.06,0,1.7,.7,1.7,1.88,0,.44-.12,1.88-1.67,1.88Z"/><path class="cls-3" d="M49.19,.82l-3.71,6.75c-.07,.13-.25,.13-.32,0l-3.72-6.75c-.06-.12-.19-.19-.32-.19h-4.71c-.28,0-.46,.3-.32,.55l6.75,12.28c.03,.05,.05,.12,.05,.18v6.9c0,.2,.17,.37,.37,.37h4.13c.2,0,.37-.17,.37-.37v-6.9c0-.06,.02-.12,.05-.18L54.55,1.17c.14-.25-.04-.55-.32-.55h-4.71c-.13,0-.26,.07-.32,.19Z"/><path class="cls-3" d="M57.79,42.72c-3.06,0-5.5,2.44-5.5,5.5s2.44,5.5,5.5,5.5,5.5-2.44,5.5-5.5-2.44-5.5-5.5-5.5Zm2.88,5.5c0,1.62-1.27,2.88-2.88,2.88s-2.88-1.27-2.88-2.88,1.27-2.88,2.88-2.88,2.88,1.27,2.88,2.88Z"/><path class="cls-3" d="M90.91,45.27c.16-.02,.32-.03,.48-.03,1.35,0,2.35,.4,2.99,.7l.06,.03s.28,.15,.28-.14v-2.07c0-.15-.04-.23-.13-.3-.02-.02-.22-.11-.25-.13-.96-.41-2-.62-3.08-.62-.1,0-.2,0-.3,0-1.52,.07-2.9,.65-3.89,1.63-1,.99-1.55,2.37-1.55,3.87s.53,2.88,1.53,3.88c.99,.98,2.34,1.54,3.91,1.61,.11,0,.22,0,.33,0,1.1,0,2.13-.24,3.14-.74,.05-.03,.28-.12,.28-.46v-4.1c0-.1-.08-.19-.18-.19h-2.21c-.1,0-.18,.08-.18,.19v2.36c0,.25-.05,.32-.17,.36-.17,.05-.43,.08-.68,.08-.11,0-.22,0-.33-.01-1.69-.15-2.74-1.29-2.74-2.97s1.04-2.74,2.7-2.95Z"/><path class="cls-3" d="M0,43.01v2.35c0,.1,.08,.18,.18,.18H2.58c.1,0,.18,.08,.18,.18v7.7c0,.1,.08,.18,.18,.18h2.35c.1,0,.18-.08,.18-.18v-7.7c0-.1,.08-.18,.18-.18h2.39c.1,0,.18-.08,.18-.18v-2.35c0-.1-.08-.18-.18-.18H.19c-.1,0-.18,.08-.18,.18Z"/><path class="cls-3" d="M36.61,43.01v3.67c0,.1-.08,.18-.18,.18h-2.44c-.1,0-.18-.08-.18-.18v-3.67c0-.1-.08-.18-.18-.18h-2.35c-.1,0-.18,.08-.18,.18v10.42c0,.1,.08,.18,.18,.18h2.35c.1,0,.18-.08,.18-.18v-3.67c0-.1,.08-.18,.18-.18h2.44c.1,0,.18,.08,.18,.18v3.67c0,.1,.08,.18,.18,.18h2.35c.1,0,.18-.08,.18-.18v-10.42c0-.1-.08-.18-.18-.18h-2.35c-.1,0-.18,.08-.18,.18Z"/><path class="cls-3" d="M68.1,50.71v-7.7c0-.1-.08-.18-.18-.18h-2.35c-.1,0-.18,.08-.18,.18v10.42c0,.1,.08,.18,.18,.18h6.19c.1,0,.18-.08,.18-.18v-2.35c0-.1-.08-.18-.18-.18h-3.47c-.1,0-.18-.08-.18-.18Z"/><rect class="cls-3" x="97.67" y="42.83" width="2.72" height="10.79" rx=".18" ry=".18"/><path class="cls-3" d="M110.36,45.36v-2.35c0-.1-.08-.18-.18-.18h-6.81c-.1,0-.18,.08-.18,.18v10.42c0,.1,.08,.18,.18,.18h6.81c.1,0,.18-.08,.18-.18v-2.35c0-.1-.08-.18-.18-.18h-4.09c-.1,0-.18-.08-.18-.18v-1.05c0-.1,.08-.18,.18-.18h4.09c.1,0,.18-.08,.18-.18v-2.16c0-.1-.08-.18-.18-.18h-4.09c-.1,0-.18-.08-.18-.18v-1.04c0-.1,.08-.18,.18-.18h4.09c.1,0,.18-.08,.18-.18Z"/><path class="cls-3" d="M17.19,45.36v-2.35c0-.1-.08-.18-.18-.18h-6.81c-.1,0-.18,.08-.18,.18v10.42c0,.1,.08,.18,.18,.18h6.81c.1,0,.18-.08,.18-.18v-2.35c0-.1-.08-.18-.18-.18h-4.09c-.1,0-.18-.08-.18-.18v-1.05c0-.1,.08-.18,.18-.18h4.09c.1,0,.18-.08,.18-.18v-2.16c0-.1-.08-.18-.18-.18h-4.09c-.1,0-.18-.08-.18-.18v-1.04c0-.1,.08-.18,.18-.18h4.09c.1,0,.18-.08,.18-.18Z"/><path class="cls-3" d="M24.71,45.28c.16-.02,.32-.03,.47-.03,1.51,0,2.74,.55,2.99,.7,.25,.15,.34,.03,.34-.11v-2.07c0-.15-.03-.27-.33-.4-.97-.42-2.04-.64-3.14-.64-.1,0-.2,0-.29,0-1.52,.07-2.9,.65-3.89,1.62-.99,.99-1.54,2.35-1.55,3.83v.05c0,1.49,.55,2.85,1.55,3.83,.98,.98,2.36,1.56,3.89,1.62,.1,0,.2,0,.29,0,.51,0,1.01-.05,1.49-.15,.68-.14,1.55-.49,1.79-.64,.14-.09,.19-.25,.19-.4v-1.88s0-.29-.24-.18c-.04,.02-.1,.05-.1,.05-.63,.3-1.66,.71-3.01,.71-.16,0-.35,0-.5-.02-1.67-.21-2.65-1.36-2.65-2.96,0-1.61,1.04-2.74,2.7-2.94Z"/><path class="cls-3" d="M47.58,43.01v4.59c0,.1-.13,.13-.17,.04l-2.55-4.65c-.06-.1-.17-.17-.28-.17h-2.33c-.1,0-.18,.08-.18,.18v10.42c0,.1,.08,.18,.18,.18h2.35c.1,0,.18-.08,.18-.18v-4.58c0-.1,.13-.13,.17-.04l2.55,4.65c.06,.1,.17,.17,.28,.17h2.33c.1,0,.18-.08,.18-.18v-10.42c0-.1-.08-.18-.18-.18h-2.35c-.1,0-.18,.08-.18,.18Z"/><path class="cls-3" d="M78.54,42.72c-3.06,0-5.5,2.44-5.5,5.5s2.44,5.5,5.5,5.5,5.5-2.44,5.5-5.5-2.44-5.5-5.5-5.5Zm2.88,5.5c0,1.62-1.27,2.88-2.88,2.88s-2.88-1.27-2.88-2.88,1.27-2.88,2.88-2.88,2.88,1.27,2.88,2.88Z"/></g><rect class="cls-1" width="120" height="54"/></g></svg>