<svg width="15" height="25" viewBox="0 0 15 25" fill="none" xmlns="http://www.w3.org/2000/svg">
<path d="M1.24882 3.12204V21.8543C1.24882 22.8889 2.08749 23.7275 3.12204 23.7275H11.878C12.9125 23.7275 13.7512 22.8889 13.7512 21.8543V3.12204C13.7512 2.08749 12.9125 1.24882 11.878 1.24882H3.12204C2.08749 1.24882 1.24882 2.08749 1.24882 3.12204ZM0 3.12204C0 1.39779 1.39779 0 3.12204 0H11.878C13.6022 0 15 1.39779 15 3.12204V21.8543C15 23.5786 13.6022 24.9764 11.878 24.9764H3.12204C1.39779 24.9764 0 23.5786 0 21.8543V3.12204ZM6.24409 21.2299C6.24409 20.5406 6.80356 19.9811 7.49291 19.9811C8.18225 19.9811 8.74173 20.5406 8.74173 21.2299C8.74173 21.9193 8.18225 22.4787 7.49291 22.4787C6.80356 22.4787 6.24409 21.9193 6.24409 21.2299Z" fill="black"/>
</svg>
